<?xml version="1.0" encoding="UTF-8"?>
<svg id="_图层_2" data-name="图层 2" xmlns="http://www.w3.org/2000/svg" viewBox="0 0 72 216">
  <defs>
    <style>
      .cls-1 {
        stroke-width: 0px;
      }
    </style>
  </defs>
  <g id="Digital_2" data-name="Digital 2">
    <path id="_0" data-name="0" class="cls-1" d="m18,0C8.06,0,0,8.06,0,18h0v180h0c0,9.94,8.06,18,18,18h36c9.94,0,18-8.06,18-18h0V18h0c0-9.94-8.06-18-18-18H18Zm0,189.97V26.03c0-4.44,3.6-8.03,8.03-8.03h19.94c4.44,0,8.03,3.6,8.03,8.03v163.94c0,4.44-3.6,8.03-8.03,8.03h-19.94c-4.44,0-8.03-3.6-8.03-8.03Z"/>
  </g>
</svg>