<?xml version="1.0" encoding="UTF-8"?>
<svg id="_图层_2" data-name="图层 2" xmlns="http://www.w3.org/2000/svg" viewBox="0 0 72 216">
  <defs>
    <style>
      .cls-1 {
        stroke-width: 0px;
      }
    </style>
  </defs>
  <g id="Digital_1" data-name="Digital 1">
    <path id="_3" data-name="3" class="cls-1" d="m0,9h0c0,4.97,4.03,9,9,9h36c4.97,0,9,4.03,9,9v45H9c-4.97,0-9,4.03-9,9h0c0,4.97,4.03,9,9,9h45v99c0,4.97-4.03,9-9,9H9c-4.97,0-9,4.03-9,9h0c0,4.97,4.03,9,9,9h45s0,0,0,0c9.94,0,18-8.06,18-18h0V18h0c0-9.94-8.06-18-18-18H9C4.03,0,0,4.03,0,9Z"/>
  </g>
</svg>