<?xml version="1.0" encoding="UTF-8"?>
<svg id="_图层_2" data-name="图层 2" xmlns="http://www.w3.org/2000/svg" viewBox="0 0 72 216">
  <defs>
    <style>
      .cls-1 {
        stroke-width: 0px;
      }
    </style>
  </defs>
  <g id="Digital_1" data-name="Digital 1">
    <path id="_4" data-name="4" class="cls-1" d="m54,81v45h-27c-4.97,0-9-4.03-9-9V9C18,4.03,13.97,0,9,0h0C4.03,0,0,4.03,0,9v117s0,0,0,0c0,9.94,8.06,18,18,18h36v63c0,4.97,4.03,9,9,9h0c4.97,0,9-4.03,9-9v-63s0-18,0-18v-45c0-4.97-4.03-9-9-9h0c-4.97,0-9,4.03-9,9Z"/>
  </g>
</svg>