<?xml version="1.0" encoding="UTF-8"?>
<svg id="_图层_2" data-name="图层 2" xmlns="http://www.w3.org/2000/svg" viewBox="0 0 72 216">
  <defs>
    <style>
      .cls-1 {
        stroke-width: 0px;
      }
    </style>
  </defs>
  <g id="Digital_2" data-name="Digital 2">
    <path id="_5" data-name="5" class="cls-1" d="m72,9.5v-1c0-4.69-3.81-8.5-8.5-8.5H8.5C3.81,0,0,3.81,0,8.5v1c0,4.69,3.81,8.5,8.5,8.5h8.5v81s-8.5,0-8.5,0C3.81,99,0,102.81,0,107.5v1c0,4.69,3.81,8.5,8.5,8.5h37c4.69,0,8.5,3.81,8.5,8.5v64c0,4.69-3.81,8.5-8.5,8.5H8.5c-4.69,0-8.5,3.81-8.5,8.5v1c0,4.69,3.81,8.5,8.5,8.5h45.5c9.94,0,18-8.06,18-18h0v-81h0c0-9.94-8.06-18-18-18h-19V18h28.5c4.69,0,8.5-3.81,8.5-8.5Z"/>
  </g>
</svg>