<?xml version="1.0" encoding="UTF-8"?>
<svg id="_图层_2" data-name="图层 2" xmlns="http://www.w3.org/2000/svg" viewBox="0 0 72 216">
  <defs>
    <style>
      .cls-1 {
        stroke-width: 0px;
      }
    </style>
  </defs>
  <g id="Digital_2" data-name="Digital 2">
    <path id="_6" data-name="6" class="cls-1" d="m18,72V9C18,4.03,13.97,0,9,0h0C4.03,0,0,4.03,0,9v126c0,4.97,4.03,9,9,9h0c4.97,0,9-4.03,9-9v-45h27c4.97,0,9,4.03,9,9v90c0,4.97-4.03,9-9,9H9c-4.97,0-9,4.03-9,9h0c0,4.97,4.03,9,9,9h45c9.94,0,18-8.06,18-18h0v-108h0c0-9.94-8.06-18-18-18H18Z"/>
  </g>
</svg>