<?xml version="1.0" encoding="UTF-8"?>
<svg id="_图层_2" data-name="图层 2" xmlns="http://www.w3.org/2000/svg" viewBox="0 0 72 216">
  <defs>
    <style>
      .cls-1 {
        stroke-width: 0px;
      }
    </style>
  </defs>
  <g id="Digital_2" data-name="Digital 2">
    <path id="_8" data-name="8" class="cls-1" d="m54,0H18C8.06,0,0,8.06,0,18H0s0,53.69,0,53.69c0,4.79,3.62,8.98,8.4,9.29,5.24.34,9.6-3.81,9.6-8.98V27c0-4.97,4.03-9,9-9h18c4.97,0,9,4.03,9,9v63c0,4.97-4.03,9-9,9h-27C8.06,99,0,107.06,0,117v81H0C0,207.94,8.06,216,18,216h36c9.94,0,18-8.06,18-18h0s0-53.69,0-53.69c0-4.79-3.62-8.98-8.4-9.29-5.24-.34-9.6,3.81-9.6,8.98v45c0,4.97-4.03,9-9,9h-18c-4.97,0-9-4.03-9-9v-63c0-4.97,4.03-9,9-9h27c9.94,0,18-8.06,18-18V18h0c0-9.94-8.06-18-18-18Z"/>
  </g>
</svg>