<?xml version="1.0" encoding="UTF-8"?>
<svg id="_图层_2" data-name="图层 2" xmlns="http://www.w3.org/2000/svg" viewBox="0 0 72 216">
  <defs>
    <style>
      .cls-1 {
        stroke-width: 0px;
      }
    </style>
  </defs>
  <g id="Digital_2" data-name="Digital 2">
    <path id="_9" data-name="9" class="cls-1" d="m72,9h0C72,4.03,67.97,0,63,0H18s0,0,0,0C8.06,0,0,8.06,0,18v108h0c0,9.94,8.06,18,18,18h36v63c0,4.97,4.03,9,9,9h0c4.97,0,9-4.03,9-9v-63s0-18,0-18v-45c0-4.97-4.03-9-9-9h0c-4.97,0-9,4.03-9,9v45h-27c-4.97,0-9-4.03-9-9V27c0-4.97,4.03-9,9-9h36c4.97,0,9-4.03,9-9Z"/>
  </g>
</svg>