<?xml version="1.0" encoding="UTF-8"?>
<svg id="_图层_2" data-name="图层 2" xmlns="http://www.w3.org/2000/svg" viewBox="0 0 216 216">
  <defs>
    <style>
      .cls-1 {
        stroke-width: 0px;
      }
    </style>
  </defs>
  <g id="Alphabet_1" data-name="Alphabet 1">
    <path id="B" class="cls-1" d="m198,72h-54.05V18h.05c0-9.94-8.06-18-18-18H9C4.03,0,0,4.03,0,9h0c0,4.97,4.03,9,9,9h107.95c4.97,0,9,4.03,9,9v45H0v126c0,9.94,8.06,18,18,18h99c4.97,0,9-4.03,9-9h0c0-4.97-4.03-9-9-9H27c-4.97,0-9-4.03-9-9v-99h171c4.97,0,9,4.03,9,9v108c0,4.97,4.03,9,9,9h0c4.97,0,9-4.03,9-9v-117s0,0,0,0c0-9.94-8.06-18-18-18h0Z"/>
  </g>
</svg>