<?xml version="1.0" encoding="UTF-8"?>
<svg id="_图层_2" data-name="图层 2" xmlns="http://www.w3.org/2000/svg" viewBox="0 0 216 216">
  <defs>
    <style>
      .cls-1 {
        stroke-width: 0px;
      }
    </style>
  </defs>
  <g id="Alphabet_1" data-name="Alphabet 1">
    <path id="C" class="cls-1" d="m198,153v36c0,4.97-4.03,9-9,9H27c-4.97,0-9-4.03-9-9V18h99c4.97,0,9,4.03,9,9v36c0,4.97,4.03,9,9,9h0c4.97,0,9-4.03,9-9V18c0-9.94-8.06-18-18-18H0v198c0,9.94,8.06,18,18,18h198v-18s0-45,0-45c0-4.97-4.03-9-9-9h0c-4.97,0-9,4.03-9,9Z"/>
  </g>
</svg>