<?xml version="1.0" encoding="UTF-8"?>
<svg id="_图层_2" data-name="图层 2" xmlns="http://www.w3.org/2000/svg" viewBox="0 0 216 216">
  <defs>
    <style>
      .cls-1 {
        stroke-width: 0px;
      }
    </style>
  </defs>
  <g id="Alphabet_1" data-name="Alphabet 1">
    <path id="E" class="cls-1" d="m216,9h0C216,4.03,211.97,0,207,0H18s-18,0-18,0v198c0,9.94,8.06,18,18,18h189c4.97,0,9-4.03,9-9h0c0-4.97-4.03-9-9-9H27c-4.97,0-9-4.03-9-9v-36h45c4.97,0,9-4.03,9-9h0c0-4.97-4.03-9-9-9H18v-54h117c4.97,0,9-4.03,9-9h0c0-4.97-4.03-9-9-9H18V18h189c4.97,0,9-4.03,9-9Z"/>
  </g>
</svg>