<?xml version="1.0" encoding="UTF-8"?>
<svg id="_图层_2" data-name="图层 2" xmlns="http://www.w3.org/2000/svg" viewBox="0 0 216 216">
  <defs>
    <style>
      .cls-1 {
        stroke-width: 0px;
      }
    </style>
  </defs>
  <g id="Alphabet_1" data-name="Alphabet 1">
    <path id="F" class="cls-1" d="m18,0H0v207c0,4.97,4.03,9,9,9h0c4.97,0,9-4.03,9-9v-63h189c4.97,0,9-4.03,9-9h0c0-4.97-4.03-9-9-9H18V18h171c4.97,0,9,4.03,9,9v36c0,4.97,4.03,9,9,9h0c4.97,0,9-4.03,9-9V18s0,0,0,0c0-9.94-8.06-18-18-18H18Z"/>
  </g>
</svg>