<?xml version="1.0" encoding="UTF-8"?>
<svg id="_图层_2" data-name="图层 2" xmlns="http://www.w3.org/2000/svg" viewBox="0 0 216 216">
  <defs>
    <style>
      .cls-1 {
        stroke-width: 0px;
      }
    </style>
  </defs>
  <g id="Alphabet_2" data-name="Alphabet 2">
    <path id="G" class="cls-1" d="m216,63V18c0-9.94-8.06-18-18-18H9C4.03,0,0,4.03,0,9h0c0,4.97,4.03,9,9,9h45v189c0,4.97,4.03,9,9,9h135c9.94,0,18-8.06,18-18v-54h-63c-4.97,0-9,4.03-9,9h0c0,4.97,4.03,9,9,9h45v27c0,4.97-4.03,9-9,9h-108c-4.97,0-9-4.03-9-9V18h117c4.97,0,9,4.03,9,9v36c0,4.97,4.03,9,9,9h0c4.97,0,9-4.03,9-9Z"/>
  </g>
</svg>