<?xml version="1.0" encoding="UTF-8"?>
<svg id="_图层_2" data-name="图层 2" xmlns="http://www.w3.org/2000/svg" viewBox="0 0 216 216">
  <defs>
    <style>
      .cls-1 {
        stroke-width: 0px;
      }
    </style>
  </defs>
  <g id="Alphabet_2" data-name="Alphabet 2">
    <path id="I" class="cls-1" d="m216,9h0C216,4.03,211.97,0,207,0H9C4.03,0,0,4.03,0,9h0c0,4.97,4.03,9,9,9h54v180H9c-4.97,0-9,4.03-9,9h0c0,4.97,4.03,9,9,9h126c4.97,0,9-4.03,9-9h0c0-4.97-4.03-9-9-9h-54V18h126c4.97,0,9-4.03,9-9Z"/>
  </g>
</svg>