<?xml version="1.0" encoding="UTF-8"?>
<svg id="_图层_2" data-name="图层 2" xmlns="http://www.w3.org/2000/svg" viewBox="0 0 216 216">
  <defs>
    <style>
      .cls-1 {
        stroke-width: 0px;
      }
    </style>
  </defs>
  <g id="Alphabet_2" data-name="Alphabet 2">
    <path id="J" class="cls-1" d="m144,198V0h-63c-4.97,0-9,4.03-9,9h0c0,4.97,4.03,9,9,9h45v180H27c-4.97,0-9-4.03-9-9v-36c0-4.97-4.03-9-9-9h0C4.03,144,0,148.03,0,153v45s0,0,0,0C0,207.94,8.06,216,18,216h189c4.97,0,9-4.03,9-9h0c0-4.97-4.03-9-9-9h-63Z"/>
  </g>
</svg>