<?xml version="1.0" encoding="UTF-8"?>
<svg id="_图层_2" data-name="图层 2" xmlns="http://www.w3.org/2000/svg" viewBox="0 0 216 216">
  <defs>
    <style>
      .cls-1 {
        stroke-width: 0px;
      }
    </style>
  </defs>
  <g id="Alphabet_3" data-name="Alphabet 3">
    <path id="N" class="cls-1" d="m198,9v135h-108v-72h0c0-9.94-8.06-18-18-18H18V9C18,4.03,13.97,0,9,0h0C4.03,0,0,4.03,0,9v45s0,18,0,18v135c0,4.97,4.03,9,9,9h0c4.97,0,9-4.03,9-9V72h45c4.97,0,9,4.03,9,9v81h54v45c0,4.97,4.03,9,9,9h0c4.97,0,9-4.03,9-9v-45h54v45c0,4.97,4.03,9,9,9h0c4.97,0,9-4.03,9-9v-45s0-18,0-18V9c0-4.97-4.03-9-9-9h0c-4.97,0-9,4.03-9,9Z"/>
  </g>
</svg>