<?xml version="1.0" encoding="UTF-8"?>
<svg id="_图层_2" data-name="图层 2" xmlns="http://www.w3.org/2000/svg" viewBox="0 0 216 216">
  <defs>
    <style>
      .cls-1 {
        stroke-width: 0px;
      }
    </style>
  </defs>
  <g id="Alphabet_3" data-name="Alphabet 3">
    <path id="P" class="cls-1" d="m72,9h0c0,4.97,4.03,9,9,9h108c4.97,0,9,4.03,9,9v99H18V9C18,4.03,13.97,0,9,0h0C4.03,0,0,4.03,0,9v189c0,9.94,8.06,18,18,18h45c4.97,0,9-4.03,9-9h0c0-4.97-4.03-9-9-9H27c-4.97,0-9-4.03-9-9v-45h198V18h0c0-9.94-8.06-18-18-18h-117c-4.97,0-9,4.03-9,9Z"/>
  </g>
</svg>