<?xml version="1.0" encoding="UTF-8"?>
<svg id="_图层_2" data-name="图层 2" xmlns="http://www.w3.org/2000/svg" viewBox="0 0 216 216">
  <defs>
    <style>
      .cls-1 {
        stroke-width: 0px;
      }
    </style>
  </defs>
  <g id="Alphabet_3" data-name="Alphabet 3">
    <g id="Q">
      <path class="cls-1" d="m144,9C144,4.03,139.97,0,135,0H18s-18,0-18,0v207c0,4.97,4.03,9,9,9h0c4.97,0,9-4.03,9-9V18h117c4.97,0,9-4.03,9-9h0Z"/>
      <path class="cls-1" d="m198,81v108c0,4.97-4.03,9-9,9h-45v-117c0-4.97-4.03-9-9-9h0c-4.97,0-9,4.03-9,9v117h-45c-4.97,0-9,4.03-9,9h0c0,4.97,4.03,9,9,9h117c9.94,0,18-8.06,18-18h0v-117c0-4.97-4.03-9-9-9h0c-4.97,0-9,4.03-9,9Z"/>
    </g>
  </g>
</svg>