<?xml version="1.0" encoding="UTF-8"?>
<svg id="_图层_2" data-name="图层 2" xmlns="http://www.w3.org/2000/svg" viewBox="0 0 216 216">
  <defs>
    <style>
      .cls-1 {
        stroke-width: 0px;
      }
    </style>
  </defs>
  <g id="Alphabet_3" data-name="Alphabet 3">
    <path id="R" class="cls-1" d="m0,9h0c0,4.97,4.03,9,9,9h189v63c0,4.97-4.03,9-9,9H18C8.06,90,0,98.06,0,108v99c0,4.97,4.03,9,9,9h0c4.97,0,9-4.03,9-9v-90c0-4.97,4.03-9,9-9h45v90c0,9.94,8.06,18,18,18h117c4.97,0,9-4.03,9-9h0c0-4.97-4.03-9-9-9h-108c-4.97,0-9-4.03-9-9v-81h108c9.94,0,18-8.06,18-18V0H9C4.03,0,0,4.03,0,9Z"/>
  </g>
</svg>