<?xml version="1.0" encoding="UTF-8"?>
<svg id="_图层_2" data-name="图层 2" xmlns="http://www.w3.org/2000/svg" viewBox="0 0 216 216">
  <defs>
    <style>
      .cls-1 {
        stroke-width: 0px;
      }
    </style>
  </defs>
  <g id="Alphabet_4" data-name="Alphabet 4">
    <g id="S">
      <path class="cls-1" d="m198,99H27c-4.97,0-9-4.03-9-9V9.31c0-4.79-3.62-8.98-8.4-9.29C4.36-.32,0,3.83,0,9v90h0c0,9.94,8.06,18,18,18h108v72c0,4.97-4.03,9-9,9H9.31c-4.79,0-8.98,3.62-9.29,8.4-.34,5.24,3.81,9.6,8.98,9.6h117c9.94,0,18-8.06,18-18h0v-81h45c4.97,0,9,4.03,9,9v80.69c0,4.79,3.62,8.98,8.4,9.29,5.24.34,9.6-3.81,9.6-8.98v-90h0c0-9.94-8.06-18-18-18Z"/>
      <path class="cls-1" d="m81,18h126c4.97,0,9-4.03,9-9s-4.03-9-9-9h-126c-4.97,0-9,4.03-9,9s4.03,9,9,9Z"/>
    </g>
  </g>
</svg>