<?xml version="1.0" encoding="UTF-8"?>
<svg id="_图层_2" data-name="图层 2" xmlns="http://www.w3.org/2000/svg" viewBox="0 0 216 216">
  <defs>
    <style>
      .cls-1 {
        stroke-width: 0px;
      }
    </style>
  </defs>
  <g id="Alphabet_4" data-name="Alphabet 4">
    <path id="T" class="cls-1" d="m0,9h0c0,4.97,4.03,9,9,9h63v45c0,4.97,4.03,9,9,9h0c4.97,0,9-4.03,9-9V18h36v180h-45c-4.97,0-9,4.03-9,9h0c0,4.97,4.03,9,9,9h45s18,0,18,0V18h63c4.97,0,9-4.03,9-9h0C216,4.03,211.97,0,207,0H9C4.03,0,0,4.03,0,9Z"/>
  </g>
</svg>