<?xml version="1.0" encoding="UTF-8"?>
<svg id="_图层_2" data-name="图层 2" xmlns="http://www.w3.org/2000/svg" viewBox="0 0 216 216">
  <defs>
    <style>
      .cls-1 {
        stroke-width: 0px;
      }
    </style>
  </defs>
  <g id="Alphabet_4" data-name="Alphabet 4">
    <path id="V" class="cls-1" d="m207,0h-45c-9.9,0-18,8.1-18,18v180h-45c-4.97,0-9-4.03-9-9v-27h0c0-9.94-8.06-18-18-18H18V9.31c0-4.79-3.62-8.98-8.4-9.29C4.36-.32,0,3.83,0,9v197.69c0,4.79,3.62,8.98,8.4,9.29,5.24.34,9.6-3.81,9.6-8.98v-45h45c4.97,0,9,4.03,9,9v27c0,9.94,8.06,18,18,18h72V27c0-4.97,4.03-9,9-9h35.69c4.79,0,8.98-3.62,9.29-8.4.34-5.24-3.81-9.6-8.98-9.6Z"/>
  </g>
</svg>