<?xml version="1.0" encoding="UTF-8"?>
<svg id="_图层_2" data-name="图层 2" xmlns="http://www.w3.org/2000/svg" viewBox="0 0 216 216">
  <defs>
    <style>
      .cls-1 {
        stroke-width: 0px;
      }
    </style>
  </defs>
  <g id="Alphabet_4" data-name="Alphabet 4">
    <g id="W">
      <path class="cls-1" d="m126,72h-44.69c-4.79,0-8.98,3.62-9.29,8.4-.34,5.24,3.81,9.6,8.98,9.6h45v99c0,4.97-4.03,9-9,9H27c-4.97,0-9-4.03-9-9V9.31c0-4.79-3.62-8.98-8.4-9.29C4.36-.32,0,3.83,0,9v189c0,9.94,8.06,18,18,18h108c9.94,0,18-8.06,18-18h0v-126h-18Z"/>
      <path class="cls-1" d="m207,0c-4.97,0-9,4.03-9,9v198c0,4.97,4.03,9,9,9s9-4.03,9-9V9c0-4.97-4.03-9-9-9Z"/>
    </g>
  </g>
</svg>