<?xml version="1.0" encoding="UTF-8"?>
<svg id="_图层_2" data-name="图层 2" xmlns="http://www.w3.org/2000/svg" viewBox="0 0 216 216">
  <defs>
    <style>
      .cls-1 {
        stroke-width: 0px;
      }
    </style>
  </defs>
  <g id="Alphabet_4" data-name="Alphabet 4">
    <g id="X">
      <path class="cls-1" d="m206.4.02c-4.78.31-8.4,4.5-8.4,9.29v35.69c0,4.97-4.03,9-9,9H27c-4.97,0-9-4.03-9-9V9.31c0-4.79-3.62-8.98-8.4-9.29C4.36-.32,0,3.83,0,9v45h0c0,9.94,8.06,18,18,18h81v90h90c4.97,0,9,4.03,9,9v35.69c0,4.79,3.62,8.98,8.4,9.29,5.24.34,9.6-3.81,9.6-8.98v-45h0c0-9.94-8.06-18-18-18h-81v-72h81c9.94,0,18-8.06,18-18h0V9c0-5.17-4.36-9.32-9.6-8.98Z"/>
      <path class="cls-1" d="m9,144c-4.97,0-9,4.03-9,9v54c0,4.97,4.03,9,9,9s9-4.03,9-9v-54c0-4.97-4.03-9-9-9Z"/>
    </g>
  </g>
</svg>